<?xml version="1.0" encoding="UTF-8"?>
<svg id="Layer_2" data-name="Layer 2" xmlns="http://www.w3.org/2000/svg" viewBox="0 0 85.82 64.77">
  <defs>
    <style>
      .cls-1 {
        fill: #fff;
      }
    </style>
  </defs>
  <g id="Layer_1-2" data-name="Layer 1">
    <path class="cls-1" d="M11.86,57.74c-.1,.29,.1,.58,.29,.77,.29,.19,.58,.19,.87,.1l1.35-.67-2.21,5.77c-.1,.39,0,.77,.39,.96,.1,.1,.29,.1,.38,.1,.29,0,.48-.1,.67-.29l14.15-19.34,9.14-2.89c.29,.29,.58,.48,.87,.67,.19,.1,.19,.19,.19,.39-.19,1.54-4.33,4.33-7.31,5.87-.29,.1-.39,.39-.39,.67s.19,.58,.39,.67c2.02,1.15,4.23,.67,6.74,.19,1.54-.29,3.08-.58,4.72-.58,.67,0,.96,.1,.96,.19,.1,.39-.87,1.83-2.21,3.08-.29,.29-.39,.67-.1,1.06,.19,.19,.39,.38,.67,.38,.1,0,.19,0,.29-.1,.39-.19,9.04-3.85,14.05-9.33,1.06-1.16,1.64-2.6,1.54-4.24-.1-1.83-.96-3.66-2.02-5.29l4.72-1.64,7.02-2.41,18.28-6.16c.39-.1,.67-.58,.48-1.06-.1-.38-.58-.67-1.06-.48l-18.09,6.06c-8.18-.77-13.18-5.2-14.91-7.7-.67-.96-.77-1.54-.77-1.83,1.64,0,4.81-.48,5.1-2.02,.1-.38,0-1.15-1.44-1.63-1.16-.39-1.06-2.12-.87-2.98h6.06c.29,0,.58-.19,.67-.39,.19-.29,.19-.58,0-.77-.1-.1-1.73-3.08-5.1-3.08-.48,0-.87-.1-1.15-.38-.48-.58-.48-1.64-.48-2.21l2.69-3.37c.39-.48,.39-1.06,.1-1.63-.29-.48-.87-.77-1.44-.67l-5.87,1.06L33.13,0c-.67-.03-1.68,0-2.77,.46-1.67,.69-2.85,2.07-2.68,2.33,.16,.24,1.29-.68,3.03-.7,1.28-.02,2.34,.46,3.1,.92,2.47,2.63,4.93,5.25,7.4,7.88l-2.12,2.98c-.29,.38-.29,.87,0,1.25,.29,.39,.67,.58,1.15,.48,.39-.1,.77,0,1.06,.19,.48,.29,.77,1.06,.96,2.02,.29,1.64-1.06,2.79-3.56,4.62-2.21,1.64-5.1,3.75-6.83,7.22-2.89,5.68,.48,9.05,3.37,11.26l-8.18,2.6-23.86-1.15c-.39,0-.67,.19-.87,.58-.1,.39,.09,.77,.38,.96l3.95,1.92L.41,48.99c-.29,.19-.48,.58-.39,.87,.1,.38,.39,.58,.77,.58H8.97l-4.72,4.81c-.19,.29-.29,.58-.1,.96,.19,.29,.48,.48,.87,.48l7.41-1.06-.58,2.12Z"/>
  </g>
</svg>