<?xml version="1.0" encoding="utf-8"?>
<!-- Generator: Adobe Illustrator 26.3.1, SVG Export Plug-In . SVG Version: 6.00 Build 0)  -->
<svg version="1.1" id="Layer_1" xmlns="http://www.w3.org/2000/svg" xmlns:xlink="http://www.w3.org/1999/xlink" x="0px" y="0px"
	 viewBox="0 0 595.28 841.89" style="enable-background:new 0 0 595.28 841.89;" xml:space="preserve">
<style type="text/css">
	.st0{fill:none;}
</style>
<path d="M496.11,52.45h-22.18l-11.31-22.63h-27.1L424.2,52.45l-22.18,0L390.59,75.3h-31.28l9.62-19.23l-13.12-26.25h-27.1
	l-13.12,26.25l13.12,26.25h11.36v0.23h50.76l8.71,17.43l-24.82,21.14l-31.83,0.09l-12.88-25.76h-27.1l-11.31,22.63h-22.18
	l-0.06,0.12h-1.07l-11.31,22.63h-22.18l-11.43,22.86h-31.28l9.62-19.23l-13.12-26.25h-0.33l-0.66-1.31h-11.36v-0.23h-50.76
	l-8.71-17.43l24.82-21.14l31.83-0.09l12.88,25.76h27.1l11.31-22.63h22.18L260,54.88l-13.12-26.25H224.7L213.38,6h-27.1l-11.31,22.63
	h-73.34v0.06l-24.6,42.94H58.6L47.29,49h-27.1L7.06,75.25l11.31,22.63L7.06,120.5l13.12,26.25h22.18l11.31,22.63h27.1l11.31-22.63
	h22.18l11.43-22.86h31.28l-9.62,19.23l13.12,26.25h0.33l0.66,1.31h11.36v0.23h50.76l8.71,17.43l-24.82,21.14l-31.83,0.09
	l-12.88-25.76h-26.99l1.56-3.12l-13.12-26.25h-27.1l-11.31,22.63H63.18l-13.12,26.25l13.12,26.25h27.1l11.31-22.63h0.34L89.06,232.7
	l11.12,22.24l-11.47,22.94l13.12,26.25h27.1l11.28-22.55h22.56l0.04-0.08h0.06l11.28-22.55h73.28v-0.06l24.6-42.94h18.42
	l11.31,22.63h27.1L342,212.33l-10.75-21.49l10.13-20.27l73.28,0v-0.06l24.6-42.94h18.42L469,150.21h27.1l13.12-26.25l-11.31-22.63
	l11.31-22.63L496.11,52.45z M333.18,75.08l-9.5-19.01l9.5-19.01h18.15l9.5,19.01l-9.5,19.01H333.18z M208.91,96.52h-18.15
	l-9.5-19.01l9.5-19.01h17.7l9.73,19.46L208.91,96.52z M242.4,35.87l9.5,19.01l-9.5,19.01h-17.7l-9.5-19.01l9.5-19.01H242.4z
	 M190.75,13.24h18.15l9.28,18.56l-9.73,19.46h-17.7l-9.5-19.01L190.75,13.24z M105.85,35.87h69.11l9.5,19.01l-7.93,15.86l-37,0.11
	l0,0.35l-0.44-0.52l-27.67,23.58H92.09l-9.17-18.35L105.85,35.87z M76.3,78.87l9.28,18.56l-9.73,19.46H58.6l-9.5-19.01l9.5-19.01
	H76.3z M15.15,75.25l9.5-19.01h18.15l9.28,18.56l-9.73,19.46h-17.7L15.15,75.25z M24.66,139.51l-9.5-19.01l9.5-19.01h17.7l9.5,19.01
	l-9.5,19.01H24.66z M76.3,162.14H58.15l-9.28-18.56l9.73-19.46h17.25l9.73,19.46L76.3,162.14z M109.79,139.51h-17.7l-9.5-19.01
	l9.5-19.01h17.7l9.5,19.01L109.79,139.51z M165.29,162.14l-8.85-17.7l9.5-19.01h17.82l8.85,17.7l-9.5,19.01H165.29z M439.99,37.06
	h18.15l9.28,18.56l-9.73,19.46h-17.25l-9.73-19.46L439.99,37.06z M396.99,78.7l9.5-19.01l17.7,0l9.5,19.01l-9.5,19.01l-17.7,0
	L396.99,78.7z M307.38,102.68h18.15l9.5,19.01l-9.47,18.93h-17.78l-9.69-19.38L307.38,102.68z M273.83,125.44h17.08l9.28,18.56
	l-9.63,19.26h-16.7l-9.47-18.93L273.83,125.44z M229.76,167.07l9.5-19.01h17.7l9.5,19.01l-9.5,19.01h-17.7L229.76,167.07z
	 M140.15,191.06h18.15l9.5,19.01L158.34,229h-17.78l-9.69-19.38L140.15,191.06z M85.81,222.34H67.65l-9.5-19.01l9.5-19.01h18.15
	l9.5,19.01L85.81,222.34z M101.6,199.71l-9.5-19.01l9.5-19.01h18.15l9.5,19.01l-9.5,19.01H101.6z M97.15,232.7l9.5-19.01h17.7
	l9.5,19.01l-9.47,18.93h-17.78L97.15,232.7z M124.46,296.89h-18.15l-9.5-19.01l9.47-18.93h18.09l9.54,19.07L124.46,296.89z
	 M158.34,274.26h-18.09l-9.31-18.62l9.66-19.32h17.7l9.5,19.01L158.34,274.26z M243.21,251.71h-68.97l-9.58-19.15l7.86-15.72
	l37-0.11l0-0.35l0.44,0.52l27.67-23.58h19.34l9.17,18.35L243.21,251.71z M273.54,208.51l-9.5-19.01l9.41-18.81h17.01l9.5,19.01
	l-9.41,18.81H273.54z M333.9,212.33l-9.5,19.01h-18.15l-8.93-17.87l10.07-20.15h17.01L333.9,212.33z M324.5,185.88h-17.01
	l-9.31-18.62l9.6-19.2h16.63l9.5,19.01L324.5,185.88z M410.44,163.33l-68.97,0l-9.58-19.15l7.86-15.72l37-0.11l0-0.35l0.44,0.52
	l27.67-23.58l19.34,0l9.17,18.35L410.44,163.33z M439.99,120.34l-9.28-18.56l9.73-19.46h17.25l9.5,19.01l-9.5,19.01H439.99z
	 M501.14,123.96l-9.5,19.01h-18.15l-9.28-18.56l9.73-19.46h17.7L501.14,123.96z M491.63,97.71h-17.7l-9.5-19.01l9.5-19.01h17.7
	l9.5,19.01L491.63,97.71z"/>
<line class="st0" x1="170" y1="454" x2="166" y2="496"/>
</svg>
