<?xml version="1.0" encoding="utf-8"?>
<!-- Generator: Adobe Illustrator 26.3.1, SVG Export Plug-In . SVG Version: 6.00 Build 0)  -->
<svg version="1.1" id="Layer_1" xmlns="http://www.w3.org/2000/svg" xmlns:xlink="http://www.w3.org/1999/xlink" x="0px" y="0px"
	 viewBox="0 0 300 300" style="enable-background:new 0 0 300 300;" xml:space="preserve">
<style type="text/css">
	.st0{fill:url(#SVGID_1_);}
</style>
<linearGradient id="SVGID_1_" gradientUnits="userSpaceOnUse" x1="46.9983" y1="150.1489" x2="296.7004" y2="150.1489">
	<stop  offset="0" style="stop-color:#FE330A"/>
	<stop  offset="0.4445" style="stop-color:#F29114"/>
	<stop  offset="1" style="stop-color:#F5E085"/>
</linearGradient>
<path class="st0" d="M216.57,161.83c0.01-0.05,0.03-0.1,0.04-0.15c-18.15-3.54-36.31-7.09-54.46-10.63l-5.67-10.97
	c3.63,0.5,7.26,1.01,10.89,1.51c32.82-23.99,65.65-47.98,98.47-71.97c-13.01,3.61-26.02,7.22-39.02,10.84l-48.53,22.77
	c16.56-25.97,33.11-51.95,49.67-77.92c-10.59,7-21.17,14-31.76,20.99l-76.81,75.55l-10.2,3.31l11.37-10.74
	c-12.56-3.77-25.13-7.55-37.69-11.32L69.04,86.4l-0.06,0.03l-39-9.87l-0.66,1.63L67.7,87.9l11.73,14.16
	c-0.39-0.12-0.78-0.23-1.17-0.35c-0.49,2.12-0.99,4.24-1.48,6.36L56.8,98.21l-0.04,0.05l-40.62,4.03l0.27,1.7l39.97-3.96l19.99,9.85
	c-4.6,19.78-9.19,39.56-13.79,59.34l23.87-22.56l19.52,37.79l41.58-13.51c-2.04,9.82-4.08,19.63-6.12,29.45
	c0.13,0.02,0.27,0.04,0.4,0.06c39.32,24.85,78.64,49.71,117.96,74.56l-43.12-113.23C216.64,161.79,216.61,161.81,216.57,161.83z"/>
</svg>
